Model Marker Locations from IK
version=1
nRows=4
nColumns=118
inDegrees=no
endheader
time	R.Heel_tx	R.Heel_ty	R.Heel_tz	R.Midfoot.Superior_tx	R.Midfoot.Superior_ty	R.Midfoot.Superior_tz	R.Midfoot.Lateral_tx	R.Midfoot.Lateral_ty	R.Midfoot.Lateral_tz	R.Toe_tx	R.Toe_ty	R.Toe_tz	L.Heel_tx	L.Heel_ty	L.Heel_tz	L.Midfoot.Superior_tx	L.Midfoot.Superior_ty	L.Midfoot.Superior_tz	L.Midfoot.Lateral_tx	L.Midfoot.Lateral_ty	L.Midfoot.Lateral_tz	L.Toe_tx	L.Toe_ty	L.Toe_tz	R.Shank.Superior_tx	R.Shank.Superior_ty	R.Shank.Superior_tz	R.Shank.Inferior_tx	R.Shank.Inferior_ty	R.Shank.Inferior_tz	R.Shank.Lateral_tx	R.Shank.Lateral_ty	R.Shank.Lateral_tz	R.Shank.Posterior_tx	R.Shank.Posterior_ty	R.Shank.Posterior_tz	L.Shank.Superior_tx	L.Shank.Superior_ty	L.Shank.Superior_tz	L.Shank.Inferior_tx	L.Shank.Inferior_ty	L.Shank.Inferior_tz	L.Shank.Posterior_tx	L.Shank.Posterior_ty	L.Shank.Posterior_tz	L.Shank.Lateral_tx	L.Shank.Lateral_ty	L.Shank.Lateral_tz	R.Patella_tx	R.Patella_ty	R.Patella_tz	L.Patella_tx	L.Patella_ty	L.Patella_tz	R.Thigh.Superior_tx	R.Thigh.Superior_ty	R.Thigh.Superior_tz	R.Thigh.Lateral_tx	R.Thigh.Lateral_ty	R.Thigh.Lateral_tz	R.Thigh.Inferior_tx	R.Thigh.Inferior_ty	R.Thigh.Inferior_tz	L.Thigh.Superior_tx	L.Thigh.Superior_ty	L.Thigh.Superior_tz	L.Thigh.Inferior_tx	L.Thigh.Inferior_ty	L.Thigh.Inferior_tz	L.Thigh.Lateral_tx	L.Thigh.Lateral_ty	L.Thigh.Lateral_tz	L.ASIS_tx	L.ASIS_ty	L.ASIS_tz	R.ASIS_tx	R.ASIS_ty	R.ASIS_tz	Sacral_tx	Sacral_ty	Sacral_tz	R.Shoulder_tx	R.Shoulder_ty	R.Shoulder_tz	L.Shoulder_tx	L.Shoulder_ty	L.Shoulder_tz	C7_tx	C7_ty	C7_tz	J.Notch_tx	J.Notch_ty	J.Notch_tz	Sternum_tx	Sternum_ty	Sternum_tz	Thoracic_tx	Thoracic_ty	Thoracic_tz	L.Elbow_tx	L.Elbow_ty	L.Elbow_tz	L.Wrist_tx	L.Wrist_ty	L.Wrist_tz	R.Elbow_tx	R.Elbow_ty	R.Elbow_tz	R.Wrist_tx	R.Wrist_ty	R.Wrist_tz	R.PSIS_tx	R.PSIS_ty	R.PSIS_tz	L.PSIS_tx	L.PSIS_ty	L.PSIS_tz
      3.84832900	      0.49539410	      0.52027568	      0.00048663	      0.58141477	      0.37218058	      0.03659865	      0.50062445	      0.45161225	      0.06694578	      0.56824822	      0.24993343	      0.06423553	      0.65381730	      0.04222982	     -0.09464762	      0.81687030	      0.09476872	     -0.14179597	      0.72256140	      0.02747361	     -0.16277895	      0.93260630	      0.05642225	     -0.16463198	      0.81741961	      0.49390652	      0.08949150	      0.70223154	      0.46445361	      0.06772787	      0.72497223	      0.54176004	      0.13182093	      0.77143144	      0.62421161	      0.08644789	      0.77969496	      0.35253401	     -0.14653444	      0.76205080	      0.23812797	     -0.14326983	      0.62975087	      0.34166161	     -0.14034171	      0.69761715	      0.27930344	     -0.19507268	      0.91646121	      0.51658036	      0.09098582	      0.79710198	      0.46565578	     -0.14833694	      0.87453883	      0.85488617	      0.06204021	      0.84665740	      0.76488604	      0.13818337	      0.94812886	      0.71020775	      0.05589121	      0.85485973	      0.76956089	     -0.18071150	      0.83098778	      0.60594828	     -0.16760438	      0.75243496	      0.70207081	     -0.23422025	      0.83773944	      0.95564422	     -0.16579200	      0.82453563	      0.94966434	      0.07739984	      0.64028385	      0.98123497	     -0.04925565	      0.73536832	      1.43285422	      0.08592107	      0.75154820	      1.42555353	     -0.23568433	      0.71221277	      1.47332361	     -0.07334064	      0.84201487	      1.38138035	     -0.06786114	      0.89926773	      1.19664691	     -0.06570061	      0.63190175	      1.32518573	     -0.07489752	      0.74861725	      1.19022623	     -0.40963086	      0.90821917	      0.98177048	     -0.45205340	      0.66445812	      1.18984322	      0.25358435	      0.73892117	      0.97255697	      0.39013377	      0.63922158	      0.98404060	     -0.01263932	      0.63941802	      0.98413925	     -0.08689655
      3.85498701	      0.49576036	      0.52042091	      0.00034788	      0.58177455	      0.37233842	      0.03652698	      0.50097025	      0.45177425	      0.06682595	      0.56860341	      0.25009760	      0.06418966	      0.65381465	      0.04223128	     -0.09465120	      0.81686727	      0.09476725	     -0.14180415	      0.72255552	      0.02747575	     -0.16278594	      0.93260120	      0.05641829	     -0.16464643	      0.81772497	      0.49414703	      0.08955540	      0.70255945	      0.46465731	      0.06772239	      0.72523676	      0.54197336	      0.13182631	      0.77169802	      0.62443764	      0.08647847	      0.77967642	      0.35253782	     -0.14653318	      0.76203839	      0.23813074	     -0.14327148	      0.62973313	      0.34165735	     -0.14033526	      0.69760067	      0.27930444	     -0.19507068	      0.91675723	      0.51685396	      0.09111204	      0.79707687	      0.46565923	     -0.14833134	      0.87447531	      0.85508020	      0.06210889	      0.84667363	      0.76505655	      0.13825340	      0.94824561	      0.71049150	      0.05601011	      0.85484183	      0.76955980	     -0.18070084	      0.83096522	      0.60594764	     -0.16759651	      0.75241419	      0.70207381	     -0.23420924	      0.83769007	      0.95567952	     -0.16577228	      0.82444097	      0.94972526	      0.07741772	      0.64020140	      0.98120605	     -0.04927790	      0.73522496	      1.43286148	      0.08590955	      0.75143223	      1.42555801	     -0.23569441	      0.71207812	      1.47332607	     -0.07335465	      0.84188988	      1.38139716	     -0.06786311	      0.89916288	      1.19667004	     -0.06569523	      0.63178353	      1.32517933	     -0.07491607	      0.74855135	      1.19015958	     -0.40966192	      0.90823266	      0.98174374	     -0.45202107	      0.66435245	      1.18980720	      0.25360167	      0.73892909	      0.97252713	      0.39010695	      0.63913084	      0.98401591	     -0.01266213	      0.63934180	      0.98410519	     -0.08691934
      3.86164502	      0.49609395	      0.52034153	      0.00027574	      0.58221160	      0.37233311	      0.03651175	      0.50133440	      0.45171099	      0.06676806	      0.56912668	      0.25008699	      0.06419195	      0.65381506	      0.04220763	     -0.09464543	      0.81685851	      0.09476663	     -0.14180442	      0.72254588	      0.02747951	     -0.16279625	      0.93259025	      0.05643012	     -0.16467872	      0.81804336	      0.49431788	      0.08962601	      0.70290922	      0.46474033	      0.06774637	      0.72550145	      0.54207811	      0.13185412	      0.77192019	      0.62457377	      0.08651983	      0.77967255	      0.35252288	     -0.14652049	      0.76203698	      0.23811533	     -0.14326193	      0.62972857	      0.34163849	     -0.14034600	      0.69760627	      0.27928754	     -0.19507104	      0.91705733	      0.51710002	      0.09122409	      0.79707111	      0.46564659	     -0.14831756	      0.87441259	      0.85526286	      0.06216942	      0.84669016	      0.76521615	      0.13831555	      0.94835263	      0.71075912	      0.05611247	      0.85479952	      0.76956063	     -0.18067388	      0.83094411	      0.60594488	     -0.16757579	      0.75238813	      0.70206138	     -0.23419665	      0.83758359	      0.95569755	     -0.16578760	      0.82435385	      0.94979224	      0.07740466	      0.64009197	      0.98116499	     -0.04928530	      0.73508001	      1.43285721	      0.08589478	      0.75130275	      1.42555329	     -0.23570838	      0.71193803	      1.47331959	     -0.07337068	      0.84175538	      1.38139898	     -0.06787267	      0.89904005	      1.19667552	     -0.06570126	      0.63165294	      1.32516773	     -0.07493516	      0.74863641	      1.19025212	     -0.40959461	      0.90815650	      0.98176246	     -0.45206202	      0.66436142	      1.18984019	      0.25351494	      0.73891728	      0.97260911	      0.39010544	      0.63902272	      0.98398262	     -0.01267009	      0.63922851	      0.98405530	     -0.08692732
      3.86830303	      0.49643710	      0.52008322	      0.00023490	      0.58270914	      0.37218112	      0.03653777	      0.50174553	      0.45148550	      0.06675569	      0.56975195	      0.24993253	      0.06426707	      0.65381864	      0.04221082	     -0.09464679	      0.81686275	      0.09476728	     -0.14180631	      0.72254852	      0.02748251	     -0.16279850	      0.93259347	      0.05642878	     -0.16468237	      0.81838368	      0.49444362	      0.08970274	      0.70329106	      0.46472973	      0.06778946	      0.72577269	      0.54210231	      0.13189410	      0.77211065	      0.62464557	      0.08656378	      0.77966486	      0.35252722	     -0.14652043	      0.76203406	      0.23811892	     -0.14326256	      0.62972135	      0.34163656	     -0.14034579	      0.69760156	      0.27928877	     -0.19507132	      0.91737064	      0.51734074	      0.09133018	      0.79705868	      0.46565158	     -0.14831673	      0.87433650	      0.85544827	      0.06221515	      0.84669608	      0.76537935	      0.13836483	      0.94844934	      0.71103125	      0.05620200	      0.85477589	      0.76956771	     -0.18067136	      0.83092647	      0.60595101	     -0.16757418	      0.75236696	      0.70206500	     -0.23419449	      0.83752710	      0.95573086	     -0.16577508	      0.82424770	      0.94984620	      0.07741497	      0.64000159	      0.98113987	     -0.04931749	      0.73494923	      1.43286263	      0.08587986	      0.75118127	      1.42555964	     -0.23572286	      0.71180827	      1.47332293	     -0.07338627	      0.84163295	      1.38141289	     -0.06788464	      0.89893259	      1.19669410	     -0.06571145	      0.63153528	      1.32516455	     -0.07495275	      0.74856304	      1.19020240	     -0.40965510	      0.90818047	      0.98176452	     -0.45205894	      0.66424973	      1.18980786	      0.25355425	      0.73891180	      0.97258349	      0.39010193	      0.63892353	      0.98396094	     -0.01270280	      0.63914511	      0.98402594	     -0.08695999
